<svg width="48" height="48" viewBox="0 0 48 48" fill="none" xmlns="http://www.w3.org/2000/svg">
<g clip-path="url(#clip0_16384_32323)">
<rect width="48" height="48" rx="16" fill="#0C75F7"/>
<path d="M6.93603 42.2001C7.96313 39.4369 9.43625 36.8176 11.3594 34.4741C13.4583 31.9051 14.0163 29.0732 13.1074 25.8584C12.6814 24.3421 12.3489 22.8002 12.1115 21.2464C11.2347 15.5194 3.84033 13.7146 3.84033 13.7146C3.84033 13.7146 13.3017 14.4731 17.8449 10.5501C20.6832 7.82451 24.4184 6.89092 28.3094 7.28578C35.5023 8.01234 41.2109 13.876 41.2109 21.4342C41.7187 28.5273 41.4376 34.4741 43.2657 42.093C45.0938 49.7119 45.7723 49.3519 45.422 50.5041H41.0625H4.81956C5.2026 46.9035 6.39014 43.4679 6.93603 42.2001Z" fill="white"/>
<path fill-rule="evenodd" clip-rule="evenodd" d="M17.3498 17.2947C16.2715 19.3872 16.2971 21.8435 17.0053 24.4125C18.0708 28.2907 17.9453 31.9819 15.4762 35.2774C13.5843 37.7896 11.8674 40.3649 10.7515 43.3288C10.5821 43.7796 10.419 44.2376 10.2752 44.6948C10.0525 45.6554 9.59756 47.6971 9.55926 48.1789C9.52095 48.6607 15.7686 48.3797 18.8972 48.1789C19.7493 42.5646 22.2679 37.6713 26.2844 33.423C28.5656 31.0107 30.6766 28.4226 31.4415 25.0519C32.1369 21.9938 32.2376 19.6694 30.3073 16.2668C28.9037 13.5979 21.1401 9.93228 17.3498 17.2947ZM21.2032 19.5759C21.2528 20.766 22.3063 21.7436 23.4964 21.6996C24.6738 21.6557 25.6769 20.5902 25.633 19.4192C25.589 18.2346 24.5235 17.2507 23.3334 17.2947C22.1368 17.345 21.1593 18.3913 21.2032 19.5759Z" fill="#0C75F7"/>
</g>
<defs>
<clipPath id="clip0_16384_32323">
<rect width="48" height="48" rx="16" fill="white"/>
</clipPath>
</defs>
</svg>
